<mxfile host="app.diagrams.net" modified="2023-05-29T10:30:48.473Z" agent="Mozilla/5.0 (Windows NT 10.0; Win64; x64) AppleWebKit/537.36 (KHTML, like Gecko) Chrome/113.0.0.0 Safari/537.36 Edg/113.0.1774.50" etag="yoVUjFqr1Awm7McjZKZd" version="21.3.2" type="device">
  <diagram name="Page-1" id="wuKPKg8n7fOWSqLQgW6j">
    <mxGraphModel dx="1400" dy="786" grid="0" gridSize="10" guides="1" tooltips="1" connect="1" arrows="1" fold="1" page="1" pageScale="1" pageWidth="827" pageHeight="1169" math="0" shadow="0">
      <root>
        <mxCell id="0" />
        <mxCell id="1" parent="0" />
        <mxCell id="KYZTzPVHc1yOyD898JZF-64" style="edgeStyle=orthogonalEdgeStyle;rounded=0;orthogonalLoop=1;jettySize=auto;html=1;exitX=0.5;exitY=1;exitDx=0;exitDy=0;" edge="1" parent="1" source="KYZTzPVHc1yOyD898JZF-1" target="KYZTzPVHc1yOyD898JZF-3">
          <mxGeometry relative="1" as="geometry" />
        </mxCell>
        <mxCell id="KYZTzPVHc1yOyD898JZF-1" value="countclear" style="rounded=0;whiteSpace=wrap;html=1;" vertex="1" parent="1">
          <mxGeometry x="320" y="60" width="120" height="60" as="geometry" />
        </mxCell>
        <mxCell id="KYZTzPVHc1yOyD898JZF-68" style="edgeStyle=orthogonalEdgeStyle;rounded=0;orthogonalLoop=1;jettySize=auto;html=1;" edge="1" parent="1" source="KYZTzPVHc1yOyD898JZF-2" target="KYZTzPVHc1yOyD898JZF-55">
          <mxGeometry relative="1" as="geometry" />
        </mxCell>
        <mxCell id="KYZTzPVHc1yOyD898JZF-2" value="Wrl" style="rounded=0;whiteSpace=wrap;html=1;" vertex="1" parent="1">
          <mxGeometry x="162" y="369" width="120" height="60" as="geometry" />
        </mxCell>
        <mxCell id="KYZTzPVHc1yOyD898JZF-65" style="edgeStyle=orthogonalEdgeStyle;rounded=0;orthogonalLoop=1;jettySize=auto;html=1;" edge="1" parent="1" source="KYZTzPVHc1yOyD898JZF-3" target="KYZTzPVHc1yOyD898JZF-56">
          <mxGeometry relative="1" as="geometry" />
        </mxCell>
        <mxCell id="KYZTzPVHc1yOyD898JZF-80" style="edgeStyle=orthogonalEdgeStyle;rounded=0;orthogonalLoop=1;jettySize=auto;html=1;" edge="1" parent="1" source="KYZTzPVHc1yOyD898JZF-3" target="KYZTzPVHc1yOyD898JZF-8">
          <mxGeometry relative="1" as="geometry" />
        </mxCell>
        <mxCell id="KYZTzPVHc1yOyD898JZF-3" value="Dval" style="rhombus;whiteSpace=wrap;html=1;" vertex="1" parent="1">
          <mxGeometry x="350" y="150" width="60" height="60" as="geometry" />
        </mxCell>
        <mxCell id="KYZTzPVHc1yOyD898JZF-81" style="edgeStyle=orthogonalEdgeStyle;rounded=0;orthogonalLoop=1;jettySize=auto;html=1;" edge="1" parent="1" source="KYZTzPVHc1yOyD898JZF-8" target="KYZTzPVHc1yOyD898JZF-12">
          <mxGeometry relative="1" as="geometry" />
        </mxCell>
        <mxCell id="KYZTzPVHc1yOyD898JZF-88" style="edgeStyle=orthogonalEdgeStyle;rounded=0;orthogonalLoop=1;jettySize=auto;html=1;entryX=0.5;entryY=0;entryDx=0;entryDy=0;" edge="1" parent="1" source="KYZTzPVHc1yOyD898JZF-8" target="KYZTzPVHc1yOyD898JZF-1">
          <mxGeometry relative="1" as="geometry">
            <Array as="points">
              <mxPoint x="640" y="281" />
              <mxPoint x="640" y="40" />
              <mxPoint x="380" y="40" />
            </Array>
          </mxGeometry>
        </mxCell>
        <mxCell id="KYZTzPVHc1yOyD898JZF-8" value="eq12" style="rhombus;whiteSpace=wrap;html=1;" vertex="1" parent="1">
          <mxGeometry x="490" y="251" width="60" height="60" as="geometry" />
        </mxCell>
        <mxCell id="KYZTzPVHc1yOyD898JZF-83" style="edgeStyle=orthogonalEdgeStyle;rounded=0;orthogonalLoop=1;jettySize=auto;html=1;" edge="1" parent="1" source="KYZTzPVHc1yOyD898JZF-10" target="KYZTzPVHc1yOyD898JZF-35">
          <mxGeometry relative="1" as="geometry" />
        </mxCell>
        <mxCell id="KYZTzPVHc1yOyD898JZF-10" value="done" style="rounded=0;whiteSpace=wrap;html=1;" vertex="1" parent="1">
          <mxGeometry x="460" y="485" width="120" height="60" as="geometry" />
        </mxCell>
        <mxCell id="KYZTzPVHc1yOyD898JZF-87" style="edgeStyle=orthogonalEdgeStyle;rounded=0;orthogonalLoop=1;jettySize=auto;html=1;entryX=0.5;entryY=0;entryDx=0;entryDy=0;" edge="1" parent="1" source="KYZTzPVHc1yOyD898JZF-12" target="KYZTzPVHc1yOyD898JZF-10">
          <mxGeometry relative="1" as="geometry" />
        </mxCell>
        <mxCell id="KYZTzPVHc1yOyD898JZF-89" style="edgeStyle=orthogonalEdgeStyle;rounded=0;orthogonalLoop=1;jettySize=auto;html=1;entryX=0.5;entryY=0;entryDx=0;entryDy=0;" edge="1" parent="1" source="KYZTzPVHc1yOyD898JZF-12" target="KYZTzPVHc1yOyD898JZF-1">
          <mxGeometry relative="1" as="geometry">
            <Array as="points">
              <mxPoint x="640" y="399" />
              <mxPoint x="640" y="40" />
              <mxPoint x="380" y="40" />
            </Array>
          </mxGeometry>
        </mxCell>
        <mxCell id="KYZTzPVHc1yOyD898JZF-12" value="Dval" style="rhombus;whiteSpace=wrap;html=1;" vertex="1" parent="1">
          <mxGeometry x="490.5" y="369" width="60" height="60" as="geometry" />
        </mxCell>
        <mxCell id="KYZTzPVHc1yOyD898JZF-22" value="ZEN" style="text;html=1;strokeColor=none;fillColor=none;align=center;verticalAlign=middle;whiteSpace=wrap;rounded=0;" vertex="1" parent="1">
          <mxGeometry x="481" y="80" width="110" height="20" as="geometry" />
        </mxCell>
        <mxCell id="KYZTzPVHc1yOyD898JZF-23" value="WRITE_RAM" style="text;html=1;strokeColor=none;fillColor=none;align=center;verticalAlign=middle;whiteSpace=wrap;rounded=0;" vertex="1" parent="1">
          <mxGeometry x="223" y="442" width="100" height="30" as="geometry" />
        </mxCell>
        <mxCell id="KYZTzPVHc1yOyD898JZF-25" value="INC_PUT" style="text;html=1;strokeColor=none;fillColor=none;align=center;verticalAlign=middle;whiteSpace=wrap;rounded=0;" vertex="1" parent="1">
          <mxGeometry x="233" y="545" width="80" height="30" as="geometry" />
        </mxCell>
        <mxCell id="KYZTzPVHc1yOyD898JZF-28" value="F" style="text;html=1;strokeColor=none;fillColor=none;align=center;verticalAlign=middle;whiteSpace=wrap;rounded=0;" vertex="1" parent="1">
          <mxGeometry x="401" y="127" width="60" height="30" as="geometry" />
        </mxCell>
        <mxCell id="KYZTzPVHc1yOyD898JZF-30" value="T" style="text;html=1;strokeColor=none;fillColor=none;align=center;verticalAlign=middle;whiteSpace=wrap;rounded=0;" vertex="1" parent="1">
          <mxGeometry x="500" y="301" width="60" height="30" as="geometry" />
        </mxCell>
        <mxCell id="KYZTzPVHc1yOyD898JZF-31" value="T" style="text;html=1;strokeColor=none;fillColor=none;align=center;verticalAlign=middle;whiteSpace=wrap;rounded=0;" vertex="1" parent="1">
          <mxGeometry x="518.5" y="366" width="60" height="30" as="geometry" />
        </mxCell>
        <mxCell id="KYZTzPVHc1yOyD898JZF-32" value="T" style="text;html=1;strokeColor=none;fillColor=none;align=center;verticalAlign=middle;whiteSpace=wrap;rounded=0;" vertex="1" parent="1">
          <mxGeometry x="366" y="195" width="60" height="30" as="geometry" />
        </mxCell>
        <mxCell id="KYZTzPVHc1yOyD898JZF-33" value="F" style="text;html=1;strokeColor=none;fillColor=none;align=center;verticalAlign=middle;whiteSpace=wrap;rounded=0;" vertex="1" parent="1">
          <mxGeometry x="518.5" y="248" width="60" height="30" as="geometry" />
        </mxCell>
        <mxCell id="KYZTzPVHc1yOyD898JZF-34" value="F" style="text;html=1;strokeColor=none;fillColor=none;align=center;verticalAlign=middle;whiteSpace=wrap;rounded=0;" vertex="1" parent="1">
          <mxGeometry x="500" y="419" width="60" height="30" as="geometry" />
        </mxCell>
        <mxCell id="KYZTzPVHc1yOyD898JZF-84" style="edgeStyle=orthogonalEdgeStyle;rounded=0;orthogonalLoop=1;jettySize=auto;html=1;" edge="1" parent="1" source="KYZTzPVHc1yOyD898JZF-35" target="KYZTzPVHc1yOyD898JZF-54">
          <mxGeometry relative="1" as="geometry" />
        </mxCell>
        <mxCell id="KYZTzPVHc1yOyD898JZF-86" style="edgeStyle=orthogonalEdgeStyle;rounded=0;orthogonalLoop=1;jettySize=auto;html=1;entryX=0.5;entryY=0;entryDx=0;entryDy=0;" edge="1" parent="1" source="KYZTzPVHc1yOyD898JZF-35" target="KYZTzPVHc1yOyD898JZF-10">
          <mxGeometry relative="1" as="geometry">
            <Array as="points">
              <mxPoint x="600" y="621" />
              <mxPoint x="600" y="460" />
              <mxPoint x="520" y="460" />
            </Array>
          </mxGeometry>
        </mxCell>
        <mxCell id="KYZTzPVHc1yOyD898JZF-35" value="eq12" style="rhombus;whiteSpace=wrap;html=1;" vertex="1" parent="1">
          <mxGeometry x="490" y="591" width="60" height="60" as="geometry" />
        </mxCell>
        <mxCell id="KYZTzPVHc1yOyD898JZF-40" value="F" style="text;html=1;strokeColor=none;fillColor=none;align=center;verticalAlign=middle;whiteSpace=wrap;rounded=0;" vertex="1" parent="1">
          <mxGeometry x="500" y="642" width="60" height="30" as="geometry" />
        </mxCell>
        <mxCell id="KYZTzPVHc1yOyD898JZF-41" value="T" style="text;html=1;strokeColor=none;fillColor=none;align=center;verticalAlign=middle;whiteSpace=wrap;rounded=0;" vertex="1" parent="1">
          <mxGeometry x="518.5" y="591" width="60" height="30" as="geometry" />
        </mxCell>
        <mxCell id="KYZTzPVHc1yOyD898JZF-85" style="edgeStyle=orthogonalEdgeStyle;rounded=0;orthogonalLoop=1;jettySize=auto;html=1;entryX=0.5;entryY=0;entryDx=0;entryDy=0;exitX=0.5;exitY=1;exitDx=0;exitDy=0;" edge="1" parent="1" source="KYZTzPVHc1yOyD898JZF-54" target="KYZTzPVHc1yOyD898JZF-1">
          <mxGeometry relative="1" as="geometry">
            <Array as="points">
              <mxPoint x="520" y="808" />
              <mxPoint x="640" y="808" />
              <mxPoint x="640" y="40" />
              <mxPoint x="380" y="40" />
            </Array>
          </mxGeometry>
        </mxCell>
        <mxCell id="KYZTzPVHc1yOyD898JZF-54" value="Wrl" style="rounded=0;whiteSpace=wrap;html=1;" vertex="1" parent="1">
          <mxGeometry x="460" y="694" width="120" height="60" as="geometry" />
        </mxCell>
        <mxCell id="KYZTzPVHc1yOyD898JZF-69" style="edgeStyle=orthogonalEdgeStyle;rounded=0;orthogonalLoop=1;jettySize=auto;html=1;" edge="1" parent="1" source="KYZTzPVHc1yOyD898JZF-55" target="KYZTzPVHc1yOyD898JZF-59">
          <mxGeometry relative="1" as="geometry" />
        </mxCell>
        <mxCell id="KYZTzPVHc1yOyD898JZF-55" value="Wrl" style="rounded=0;whiteSpace=wrap;html=1;" vertex="1" parent="1">
          <mxGeometry x="162" y="472" width="120" height="60" as="geometry" />
        </mxCell>
        <mxCell id="KYZTzPVHc1yOyD898JZF-66" style="edgeStyle=orthogonalEdgeStyle;rounded=0;orthogonalLoop=1;jettySize=auto;html=1;" edge="1" parent="1" source="KYZTzPVHc1yOyD898JZF-56" target="KYZTzPVHc1yOyD898JZF-2">
          <mxGeometry relative="1" as="geometry" />
        </mxCell>
        <mxCell id="KYZTzPVHc1yOyD898JZF-77" style="edgeStyle=orthogonalEdgeStyle;rounded=0;orthogonalLoop=1;jettySize=auto;html=1;" edge="1" parent="1" source="KYZTzPVHc1yOyD898JZF-56" target="KYZTzPVHc1yOyD898JZF-74">
          <mxGeometry relative="1" as="geometry" />
        </mxCell>
        <mxCell id="KYZTzPVHc1yOyD898JZF-56" value="Dval" style="rhombus;whiteSpace=wrap;html=1;" vertex="1" parent="1">
          <mxGeometry x="192" y="251" width="60" height="60" as="geometry" />
        </mxCell>
        <mxCell id="KYZTzPVHc1yOyD898JZF-57" value="T" style="text;html=1;strokeColor=none;fillColor=none;align=center;verticalAlign=middle;whiteSpace=wrap;rounded=0;" vertex="1" parent="1">
          <mxGeometry x="222" y="248" width="60" height="30" as="geometry" />
        </mxCell>
        <mxCell id="KYZTzPVHc1yOyD898JZF-58" value="F" style="text;html=1;strokeColor=none;fillColor=none;align=center;verticalAlign=middle;whiteSpace=wrap;rounded=0;" vertex="1" parent="1">
          <mxGeometry x="208" y="301" width="60" height="30" as="geometry" />
        </mxCell>
        <mxCell id="KYZTzPVHc1yOyD898JZF-70" style="edgeStyle=orthogonalEdgeStyle;rounded=0;orthogonalLoop=1;jettySize=auto;html=1;" edge="1" parent="1" source="KYZTzPVHc1yOyD898JZF-59" target="KYZTzPVHc1yOyD898JZF-60">
          <mxGeometry relative="1" as="geometry" />
        </mxCell>
        <mxCell id="KYZTzPVHc1yOyD898JZF-59" value="Wrl" style="rounded=0;whiteSpace=wrap;html=1;" vertex="1" parent="1">
          <mxGeometry x="162" y="575" width="120" height="60" as="geometry" />
        </mxCell>
        <mxCell id="KYZTzPVHc1yOyD898JZF-71" style="edgeStyle=orthogonalEdgeStyle;rounded=0;orthogonalLoop=1;jettySize=auto;html=1;exitX=0.5;exitY=1;exitDx=0;exitDy=0;" edge="1" parent="1" source="KYZTzPVHc1yOyD898JZF-60" target="KYZTzPVHc1yOyD898JZF-61">
          <mxGeometry relative="1" as="geometry" />
        </mxCell>
        <mxCell id="KYZTzPVHc1yOyD898JZF-60" value="Wrl" style="rounded=0;whiteSpace=wrap;html=1;" vertex="1" parent="1">
          <mxGeometry x="162" y="678" width="120" height="60" as="geometry" />
        </mxCell>
        <mxCell id="KYZTzPVHc1yOyD898JZF-72" style="edgeStyle=orthogonalEdgeStyle;rounded=0;orthogonalLoop=1;jettySize=auto;html=1;entryX=0.5;entryY=0;entryDx=0;entryDy=0;" edge="1" parent="1" source="KYZTzPVHc1yOyD898JZF-61" target="KYZTzPVHc1yOyD898JZF-1">
          <mxGeometry relative="1" as="geometry">
            <Array as="points">
              <mxPoint x="120" y="803" />
              <mxPoint x="120" y="40" />
              <mxPoint x="380" y="40" />
            </Array>
          </mxGeometry>
        </mxCell>
        <mxCell id="KYZTzPVHc1yOyD898JZF-73" style="edgeStyle=orthogonalEdgeStyle;rounded=0;orthogonalLoop=1;jettySize=auto;html=1;entryX=0.5;entryY=0;entryDx=0;entryDy=0;" edge="1" parent="1" source="KYZTzPVHc1yOyD898JZF-61" target="KYZTzPVHc1yOyD898JZF-60">
          <mxGeometry relative="1" as="geometry">
            <Array as="points">
              <mxPoint x="302" y="803" />
              <mxPoint x="302" y="658" />
              <mxPoint x="222" y="658" />
            </Array>
          </mxGeometry>
        </mxCell>
        <mxCell id="KYZTzPVHc1yOyD898JZF-61" value="eq12" style="rhombus;whiteSpace=wrap;html=1;" vertex="1" parent="1">
          <mxGeometry x="192" y="773" width="60" height="60" as="geometry" />
        </mxCell>
        <mxCell id="KYZTzPVHc1yOyD898JZF-62" value="T" style="text;html=1;strokeColor=none;fillColor=none;align=center;verticalAlign=middle;whiteSpace=wrap;rounded=0;" vertex="1" parent="1">
          <mxGeometry x="222" y="773" width="60" height="30" as="geometry" />
        </mxCell>
        <mxCell id="KYZTzPVHc1yOyD898JZF-63" value="F" style="text;html=1;strokeColor=none;fillColor=none;align=center;verticalAlign=middle;whiteSpace=wrap;rounded=0;" vertex="1" parent="1">
          <mxGeometry x="162" y="773" width="60" height="30" as="geometry" />
        </mxCell>
        <mxCell id="KYZTzPVHc1yOyD898JZF-78" style="edgeStyle=orthogonalEdgeStyle;rounded=0;orthogonalLoop=1;jettySize=auto;html=1;entryX=0.5;entryY=0;entryDx=0;entryDy=0;" edge="1" parent="1" source="KYZTzPVHc1yOyD898JZF-74" target="KYZTzPVHc1yOyD898JZF-1">
          <mxGeometry relative="1" as="geometry">
            <Array as="points">
              <mxPoint x="472" y="399" />
              <mxPoint x="472" y="40" />
              <mxPoint x="380" y="40" />
            </Array>
          </mxGeometry>
        </mxCell>
        <mxCell id="KYZTzPVHc1yOyD898JZF-79" style="edgeStyle=orthogonalEdgeStyle;rounded=0;orthogonalLoop=1;jettySize=auto;html=1;entryX=0.5;entryY=0;entryDx=0;entryDy=0;" edge="1" parent="1" source="KYZTzPVHc1yOyD898JZF-74" target="KYZTzPVHc1yOyD898JZF-10">
          <mxGeometry relative="1" as="geometry">
            <Array as="points">
              <mxPoint x="376" y="460" />
              <mxPoint x="520" y="460" />
            </Array>
          </mxGeometry>
        </mxCell>
        <mxCell id="KYZTzPVHc1yOyD898JZF-74" value="eq12" style="rhombus;whiteSpace=wrap;html=1;" vertex="1" parent="1">
          <mxGeometry x="346" y="369" width="60" height="60" as="geometry" />
        </mxCell>
        <mxCell id="KYZTzPVHc1yOyD898JZF-75" value="T" style="text;html=1;strokeColor=none;fillColor=none;align=center;verticalAlign=middle;whiteSpace=wrap;rounded=0;" vertex="1" parent="1">
          <mxGeometry x="356" y="419" width="60" height="30" as="geometry" />
        </mxCell>
        <mxCell id="KYZTzPVHc1yOyD898JZF-76" value="F" style="text;html=1;strokeColor=none;fillColor=none;align=center;verticalAlign=middle;whiteSpace=wrap;rounded=0;" vertex="1" parent="1">
          <mxGeometry x="380" y="373" width="60" height="30" as="geometry" />
        </mxCell>
        <mxCell id="KYZTzPVHc1yOyD898JZF-90" value="SELECT_PUT" style="text;html=1;strokeColor=none;fillColor=none;align=center;verticalAlign=middle;whiteSpace=wrap;rounded=0;" vertex="1" parent="1">
          <mxGeometry x="243" y="339" width="60" height="30" as="geometry" />
        </mxCell>
        <mxCell id="KYZTzPVHc1yOyD898JZF-91" value="ACCEPTED" style="text;html=1;strokeColor=none;fillColor=none;align=center;verticalAlign=middle;whiteSpace=wrap;rounded=0;" vertex="1" parent="1">
          <mxGeometry x="318" y="693" width="60" height="30" as="geometry" />
        </mxCell>
        <mxCell id="KYZTzPVHc1yOyD898JZF-92" value="WRITE_REG" style="text;html=1;strokeColor=none;fillColor=none;align=center;verticalAlign=middle;whiteSpace=wrap;rounded=0;" vertex="1" parent="1">
          <mxGeometry x="662" y="500" width="60" height="30" as="geometry" />
        </mxCell>
        <mxCell id="KYZTzPVHc1yOyD898JZF-93" value="INC_GET" style="text;html=1;strokeColor=none;fillColor=none;align=center;verticalAlign=middle;whiteSpace=wrap;rounded=0;" vertex="1" parent="1">
          <mxGeometry x="662" y="709" width="60" height="30" as="geometry" />
        </mxCell>
      </root>
    </mxGraphModel>
  </diagram>
</mxfile>
